<?xml version="1.0" encoding="utf-8"?>
<!-- Generator: Adobe Illustrator 18.1.1, SVG Export Plug-In . SVG Version: 6.00 Build 0)  -->
<!DOCTYPE svg PUBLIC "-//W3C//DTD SVG 1.1//EN" "http://www.w3.org/Graphics/SVG/1.1/DTD/svg11.dtd">
<svg version="1.1" id="Layer_1" xmlns="http://www.w3.org/2000/svg" xmlns:xlink="http://www.w3.org/1999/xlink" x="0px" y="0px"
	 width="540px" height="473.2px" viewBox="0 0 540 473.2" enable-background="new 0 0 540 473.2" xml:space="preserve">
<g>
	<g>
		<path fill="#1D1D1B" d="M435.2,462.4c-0.4,2-0.8,4-1.2,6h64.5l-62.8-9.3C435.5,460.2,435.4,461.3,435.2,462.4z"/>
		<path fill="#1D1D1B" d="M238.3,384.8h10.1L238,378C238,382.9,238.3,384.8,238.3,384.8z"/>
		<path fill="#1D1D1B" d="M209.7,359.5l13.3,14c0.9-1.3,1.8-2.5,2.5-3.6L209.7,359.5L209.7,359.5z"/>
		<polygon fill="#1D1D1B" points="539.9,468.4 498.5,468.4 540,473.2 		"/>
		<path fill="#1D1D1B" d="M280.8,304.1c-1,20.3-3.1,39.2-6.4,56.9c-3.1,16.8-5.2,27.3-7.5,35.1l35.9,20.6c4.4-7.9,4.4-13.3,9.3-39.7
			c4.1-21.6,6.2-45.4,6.5-71.3c-4.1,0.4-8.3,0.6-12.6,0.6C297.4,306.4,289,305.5,280.8,304.1z"/>
		<path fill="#1D1D1B" d="M536.2,356.2l-60.3-124.1h-41c-1.7,3-3.5,6-5.4,8.8c14.5,87.9,16.5,159.9,6.2,218.2l62.8,9.3h41.4
			L536.2,356.2z"/>
		<path fill="#1D1D1B" d="M244.3,326.8c-5.2,27.9-6.3,43.4-6.3,51.2l10.5,6.8h3c9.5-10.1,11.5,0.1,12.4,2.2c0.1-3.2,2-18.9,4.5-32.4
			c3-16.1,5-33.3,5.9-51.8c-8.8-1.9-17.4-4.5-25.5-8C247.6,306,246.2,316.6,244.3,326.8z"/>
		<path fill="#1D1D1B" d="M202.2,300.7c-0.3,1.2-12.7,36-12.8,37.4l20.3,21.4h0l15.8,10.3c12.9-18.6,5.7-11.7,12.8-49.4
			c1.7-9.1,3-18.6,4.1-28.5c-10.4-4.9-20.1-10.9-29-17.9L202.2,300.7z"/>
		<path fill="#1D1D1B" d="M316.9,382.2c-2.5,13.4-5.6,25.8-9.3,37.1l47.9,25.2c2.4-8.4,4.5-17.4,6.3-27c6.6-35.5,8.2-76.7,5-124.1
			c-13.4,6-27.8,10-42.9,11.8C323.5,333.2,321.2,358.8,316.9,382.2z"/>
		<path fill="#1D1D1B" d="M371.8,290.9c3.5,50,1.7,93.8-5.3,131.6c-1.6,8.7-3.5,16.9-5.6,24.8l7.5,4l59.7,6.6l3.5,0.5
			c10.5-56.2,8.6-126.5-5.6-212.9C411.9,264.7,393.4,280.3,371.8,290.9z"/>
		<path fill="#FFFFFF" d="M315.4,232.1H280c0.3,4.5,0.5,8.9,0.7,13.3l35-9.5C315.6,234.6,315.5,233.4,315.4,232.1z"/>
		<path fill="#FFFFFF" d="M273.4,232.1h-22.1c0.1,7.3,0,14.3-0.1,21.3l23-6.3C274,242.2,273.7,237.2,273.4,232.1z"/>
		<path fill="#FFFFFF" d="M320.8,232.1c0.1,0.8,0.1,1.6,0.2,2.4l8.7-2.4H320.8z"/>
	</g>
	<polygon fill="#1D1D1B" points="175.9,233.6 169.5,233.6 169.5,238.8 	"/>
	<polygon fill="#1D1D1B" points="97.3,190.5 90.8,190.5 90.8,195.7 	"/>
	<polygon fill="#1D1D1B" points="179.5,260.5 175.2,255.7 171.3,259.1 	"/>
	<polygon fill="#1D1D1B" points="136.8,196.7 132.5,191.9 128.6,195.2 	"/>
	<polygon fill="#1D1D1B" points="153.7,230.6 150.2,230.8 150.3,233.5 	"/>
	<polygon fill="#1D1D1B" points="117.8,197.6 109.6,192.7 105.7,199.2 	"/>
	<polygon fill="#1D1D1B" points="191.9,274.8 196.1,262.3 186.1,259 	"/>
	<polygon fill="#1D1D1B" points="136.2,186.3 140.4,173.8 130.5,170.5 	"/>
	<polygon fill="#1D1D1B" points="143.7,250.6 162.6,249.5 161.7,234.4 	"/>
	<polygon fill="#1D1D1B" points="120.5,207.4 128.3,224.6 142.1,218.4 	"/>
	<polygon fill="#1D1D1B" points="102.1,182.6 114.5,168.3 103.2,158.4 	"/>
	<polygon fill="#1D1D1B" points="148.5,209.6 161.5,211.1 162.7,200.7 	"/>
	<g>
		<path fill="#1D1D1B" d="M417.4,198.9l-2.8,0.8l-4.8,1l-7.5-0.4l-8.2-2.9l-6.4-5.3l-3.6-5.6l-2.4-8l-0.1-3.3l1.9-10.9l2.2-3.5
			l2-2.1l6.8-5.3l3.6-1.4l4.3-1.3l4.2-0.7l3.1,0.1l5.4,1l6.2,2.3l4.3,1.9l2,1.2c-0.2-7.5-1-15-2.6-22.6c-0.5-2.4-1.2-4.7-1.9-7.1
			L358.3,159c0.1,24.5-17,47.6-42.2,51.3c-19.8,2.8-37.8-6.3-50-20.5l-82.3-24.8c0.3,6.2,1,13.4,2.4,19.7
			c2.2,10.6,5.9,20.5,10.6,29.7l0.5-1.9l1.3-2.6l3.1-4.6l5-4.7l7.8-4l7.4-1.2l7.4,1.5l7.5,3.8l2.7,2.5l6.3,8.6l1.1,4l0.2,2.9
			l-0.8,8.6l-1.4,3.6l-2,4l-2.8,3.9l-1.9,1.8l-4.4,3.3l-10.3,4.7l-0.7,0.2c23.8,22.1,56,34.3,89.9,32.3l-0.4-0.3l-3.3-3.1l-1.7-2.4
			l-2.6-4.9l-1.8-6.7l-0.1-3.5l0.3-5.2l3-7.7l4.2-5.1l6.9-4.8l2.8-1l5.4-1.2l5-0.6l4.9,1.2l5.5,3l4.2,3.1l2.5,3l2.6,3.7l2.1,4.3
			l0.7,2.5l0.8,5l-0.3,7.1l-0.5,4.6c33.4-14,58.2-41.9,68.9-75.3l-0.3,0.2L417.4,198.9z"/>
		<path fill="#1D1D1B" d="M328.9,278.9l1.2,14.2l3.6-1.9l1.1-1.3l1.5-2.9l3.8-10.8c-3.1,0.9-6.2,1.8-9.4,2.5
			C330.2,278.8,329.6,278.8,328.9,278.9z"/>
		<path fill="#1D1D1B" d="M193.8,238.8l3.5,2.2l1.6,0.3l3.3-0.1l11.4-1.8c-2.5-2.9-4.9-5.9-7.1-9L193.8,238.8z"/>
		<g>
			<path fill="#1D1D1B" d="M241.2,216l-0.8-2.8l-2.1-3l-3.1-3.6l-2.2-2l-2.8-1.4l-3.3-1.4l-2.9-0.5l-2.5-0.5l-3,0.3l-3,0.6l-3.1,1.5
				l-3,1.8l-3.9,3.9l-2,3.1l-1.3,2.6l-0.8,3.1l-0.1,2.7l0.9,3.2l0.8,2.2l-13.5,8.9l-1.8,1.5l-0.9,1.3l0.2,1.5l1.3,2.1l3.5,2.7
				l3.6,2.1l3,0.6l3.8,0l5.1-0.6l5.4-0.8l4.2-0.8l4.2-1.2l4.1-1.7l2.6-1.2l3.2-1.6l3-2.3l1.9-1.8l1.7-2.4l1.8-3.5l1.4-3.6l0.4-3.5
				l0.2-2.7L241.2,216z M218.6,215.6c-1.4,1.2-3.6,1-4.8-0.4c-1.2-1.4-1-3.6,0.4-4.8c1.4-1.2,3.5-1,4.8,0.4
				C220.2,212.2,220,214.4,218.6,215.6z M231.3,230.4c-1.4,1.2-3.6,1.1-4.8-0.4c-1.2-1.4-1-3.6,0.4-4.8c1.4-1.2,3.5-1,4.8,0.4
				C232.8,227,232.7,229.1,231.3,230.4z"/>
		</g>
		<path fill="#1D1D1B" d="M438,179.1l-0.9-1.4l-2.3-2.4l-7.7-5.9c-0.3,3.6-0.8,7.1-1.4,10.7l13.1,3L438,179.1z"/>
		<path fill="#FFFFFF" d="M434.8,175.4l2.3,2.4l0.9,1.4l0.7,4l-13.1-3c-0.3,1.8-0.7,3.6-1.1,5.4l14.5,3.3l2.3,0.3l1.5-0.2l1-1.2
			l0.6-2.4l-0.4-4.4l-0.9-4l-1.7-2.6l-2.7-2.8l-3.9-3.3l-4.3-3.3l-3.1-2.2c-0.1,2.2-0.1,4.5-0.3,6.7L434.8,175.4z"/>
	</g>
	<polygon fill="#1D1D1B" points="97.3,144.4 134.9,47.9 130.3,20.9 0,8.9 6,66.8 39.2,146.8 	"/>
	<g>
		<path fill="#1D1D1B" d="M357.9,149.3c-0.5,0-1-0.1-1.5-0.3c-1.1-0.5-1.9-1.3-2.2-2.4c-4.8-15.5-13.6-25.8-26.1-31.2
			c-10.7-4.6-22.6-6.7-33.9-3.4L185.9,77.3c-1.2-0.4-2.1-1.3-2.5-2.4c-0.4-1.2-0.2-2.5,0.5-3.5c11.2-16.2,26.3-38,54.5-52.2
			C277.4-0.3,315.8-5,351.9,5.3c48.6,13.9,79.1,58.7,91.5,96c0.6,1.8-0.2,3.8-1.9,4.7l-81.8,42.9
			C359.2,149.1,358.5,149.3,357.9,149.3z M306.2,101.1c6.3,0,12.6,1.6,16.8,2.8c17.7,5,30.6,20,37.1,35.9l74.9-39.2
			c-12.4-34.8-40.8-75.2-85.2-87.8C315.5,3,279.1,7.5,241.9,26.2c-24.2,12.1-38.3,29.7-48.6,44.4l105.1,31
			C300.9,101.2,304,101.1,306.2,101.1z"/>
		<path fill="#1D1D1B" d="M356.9,143.5c-0.5,0-1-0.1-1.4-0.3c-1-0.4-1.8-1.3-2.1-2.3c-4.5-14.8-16.8-26.9-32.7-31.4
			c-3.4-0.9-8.7-2.4-14-2.4c-2.9,0-5.4,0.2-6.9,0.5c-0.7,0.1-1.3,0.1-1.9-0.1l-106-31.3c-1.1-0.4-2-1.2-2.4-2.4
			c-0.4-1.1-0.2-2.3,0.5-3.3c10.7-15.5,25.1-35.4,52-48.9C279.1,3,315.7-1.5,350.2,8.3c46.4,13.2,75.5,56,87.3,91.6
			c0.5,1.7-0.2,3.6-1.8,4.5l-77,38.7C358.1,143.3,357.5,143.5,356.9,143.5z M306.6,99.5c6,0,12,1.6,16,2.7
			c16.9,4.8,30.2,17,36.4,32.2l70.5-35.3c-11.8-33.2-39-71.8-81.3-83.8c-32.7-9.3-67.4-5-103,12.8c-23.1,11.6-36.6,28.3-46.4,42.3
			L299.1,100C301.5,99.6,304.5,99.5,306.6,99.5z"/>
		<path fill="#1D1D1B" d="M100.1,127.8l162,51.7c-3.8-10.2-3.5-22.8-0.8-33.4c2.5-9.4,7.7-18.8,22.8-27.9L125.8,66.8L100.1,127.8z"
			/>
		<path fill="#1D1D1B" d="M316.8,123.4c-3.5-0.9-7.2-1.2-10.9-1c-20.8,1.1-36.9,19-35.8,39.8c0.9,16.6,12.8,30.9,28.9,34.8
			c3.5,0.8,7.2,1.2,10.9,1c10.1-0.5,19.4-5,26.1-12.5c6.8-7.5,10.2-17.2,9.6-27.3C344.8,141.5,332.9,127.3,316.8,123.4z"/>
	</g>
</g>
</svg>
