<?xml version="1.0" encoding="utf-8"?>
<!-- Generator: Adobe Illustrator 18.1.1, SVG Export Plug-In . SVG Version: 6.00 Build 0)  -->
<!DOCTYPE svg PUBLIC "-//W3C//DTD SVG 1.1//EN" "http://www.w3.org/Graphics/SVG/1.1/DTD/svg11.dtd">
<svg version="1.1" id="Layer_1" xmlns="http://www.w3.org/2000/svg" xmlns:xlink="http://www.w3.org/1999/xlink" x="0px" y="0px"
	 width="275px" height="275px" viewBox="-478 143 275 275" enable-background="new -478 143 275 275" xml:space="preserve">
<g id="logo">
	<path fill="#FFF9C7" d="M-203,280.5c0,76-61.5,137.5-137.5,137.5S-478,356.5-478,280.5S-416.5,143-340.5,143S-203,204.5-203,280.5z
		"/>
	<g>
		<path d="M-299.5,249.2l-7.1-21.2h2.6l-12.9-33l-4.7,12.7l1.4,3.8c0.2,0.2,0.4,0.6,0.4,1c0,0.8-0.6,1.4-1.4,1.4l0,0h-1.6l9.5,28.3
			c0.2,0.4,0,1-0.2,1.4c-0.2,0.4-0.8,0.6-1.2,0.6h-16.8l0.2,5.3h9.9l-0.8,15.6h10.7l-0.8-15.6h12.9V249.2z"/>
		<path d="M-365.8,243.3c-0.2-0.4-0.4-0.8-0.2-1.4l9.5-28.3h-1.6c-0.4,0-1-0.2-1.2-0.6c-0.2-0.4-0.4-1-0.2-1.4l1.6-4.2l-4.7-12.5
			l-12.9,33h2.6l-7.1,21.2h12.9l-0.8,15.6h10.7l-0.8-15.6h9.9l0.2-5.3h-16.8C-365,244.1-365.6,243.7-365.8,243.3z"/>
		<path d="M-333.2,241.1h1.8h14.4l-8.1-24.3l-1.4-4c-0.2-0.4,0-1,0.2-1.4c0.2-0.4,0.8-0.6,1.2-0.6h1.4l-16.2-41.7l-16.2,41.7h1.6
			c0.4,0,1,0.2,1.2,0.6c0.2,0.4,0.4,0.8,0.2,1.4l-1.4,4l-8.1,24.3h14.4h1.8c0.4,0,0.8,0.2,1,0.4s0.4,0.6,0.4,1.2l-1,22.4h12.1
			l-1-22.4c0-0.4,0.2-0.8,0.4-1.2C-334,241.1-333.6,241.1-333.2,241.1z"/>
	</g>
	<path d="M-436.8,256.2c2-2,5.1-8.7,7.9-14.6c2-4.2,3.6-7.7,4.6-8.9c1.8-2.4,3.2-5.3,3.6-6.3l1,0.6h0.2c0.6-0.8,1.4-3,1.4-3v-0.2
		c-0.2-0.2-0.6-0.4-1-0.6v-0.2v-0.2l-2.2-1.2h-0.2v0.2c-1.6-1-3.4-2.2-4.7-3c-1-0.6-1.6-1.2-1.6-1.2h-0.2c-3.2,3-2.6,6.9-2.6,7.1
		l0,0c0,0,0,0.2,0.2,0.2l1.8-0.2l4.2-0.4l0.8,0.4c-2.4,3.6-4.9,9.9-7.1,15c-0.6,1.6-1.4,3.2-1.8,4.6c-2.2,4.9-6.7,9.5-6.7,9.7
		c0,0,0,0,0,0.2l0,0l1,1.8c0,0,0,0,0.2,0L-436.8,256.2L-436.8,256.2z M-419.8,225.9c0-0.2,0.2-0.2,0.2-0.4
		C-419.8,225.7-419.8,225.9-419.8,225.9z M-419.4,225.3c0-0.2,0-0.2,0.2-0.4C-419.4,225.1-419.4,225.1-419.4,225.3z M-419.2,224.5
		v-0.2C-419.2,224.3-419.2,224.3-419.2,224.5z M-419.6,222.9L-419.6,222.9C-419.8,222.9-419.8,222.9-419.6,222.9L-419.6,222.9
		L-419.6,222.9z"/>
	<g>
		<path d="M-340.5,413.4c-73.4,0-132.9-59.7-132.9-133.1s59.7-132.9,132.9-132.9s132.9,59.7,132.9,132.9
			C-207.6,353.9-267.1,413.4-340.5,413.4z M-340.5,152.5c-70.6,0-128,57.4-128,128s57.4,128,128,128s128-57.4,128-128
			S-270.1,152.5-340.5,152.5z"/>
	</g>
	<g>
		<path d="M-340.5,400.4c-66.1,0-119.9-53.8-119.9-120.1c-0.2-66.1,53.6-119.9,119.9-119.9c66.1,0,119.9,53.8,119.9,119.9
			C-220.6,346.6-274.4,400.4-340.5,400.4z M-340.5,165.6c-63.3,0-114.9,51.6-114.9,114.9s51.6,114.9,114.9,114.9
			s114.9-51.6,114.9-114.9C-225.6,217-277.2,165.6-340.5,165.6z"/>
	</g>
	<g>
		<rect x="-457" y="294.7" width="233.1" height="4.9"/>
	</g>
	<g>
		<g>
			<g>
				<g>
					<rect x="-402.4" y="180.2" width="4.9" height="85.1"/>
				</g>
			</g>
			<g>
				<rect x="-412.5" y="185.9" width="4.9" height="79.9"/>
			</g>
		</g>
		<g>
			<g>
				<g>
					<rect x="-283.7" y="180.2" width="4.9" height="85.1"/>
				</g>
			</g>
			<g>
				<rect x="-273.6" y="185.9" width="4.9" height="79.9"/>
			</g>
		</g>
	</g>
	<g>
		<g>
			<rect x="-337.3" y="296.3" width="4.9" height="100.1"/>
		</g>
	</g>
	<g>
		<rect x="-347.2" y="295.5" width="4.9" height="100.9"/>
	</g>
	<g>
		<g>
			<path d="M-301.7,371.7c0.2,0.6,0,1.4-0.6,2l-7.3,7.3c-0.8,0.8-2.2,0.8-3,0l-6.7-6.7c-0.8-0.8-0.8-2.2,0-3l7.3-7.3
				c0.6-0.6,1.2-0.8,2-0.6c-0.2-0.8-0.4-1.6-0.4-2.4c-1.2,0-2.4,0.4-3.4,1.4l-7.3,7.3c-1.8,1.8-1.8,4.6,0,6.3l6.7,6.7
				c1.8,1.8,4.6,1.8,6.3,0l7.3-7.3c1-1,1.4-2.2,1.4-3.4C-300.1,371.9-300.9,371.9-301.7,371.7z"/>
		</g>
		<g>
			<path d="M-316.2,358.6l-8.5-10.5l-0.2-0.2c-0.2-0.2-0.2-0.6,0-0.8l11.7-11.7c0.2-0.2,0.6-0.2,1,0l10.7,8.7l3.4-3.4l-10.9-8.7
				c-2.2-2-5.5-2-7.5,0.2l-11.7,11.7c-2,2-2.2,5.3-0.2,7.5l8.7,10.9L-316.2,358.6z"/>
		</g>
		<g>
			<path d="M-268.7,312.6c-1.4,1.4-2.8,3-4.4,4.6c-1.4,1.6-3,3.2-4.4,4.6l-16.6,16.8c-2.8,2.8-3.6,7.1-2,10.7c2,0.6,3.8,1.6,5.3,3
				c1.6,1.6,2.6,3.4,3,5.3c3.6,1.6,7.9,1,10.7-2l29.7-29.7c3.8-3.8,3.8-9.7,0-13.5l-3.6-3.6C-256.8,302.5-262.9,307-268.7,312.6z
				 M-250.9,315.9c1.6,1.6,1.6,4.4,0,6.1l-29.7,29.7c-1.6,1.6-4.4,1.6-6.1,0l-3.6-3.6c-1.6-1.6-1.6-4.4,0-6.1l29.7-29.9
				c1.6-1.6,4.4-1.6,6.1,0L-250.9,315.9z"/>
		</g>
		<g>
			<g>
				<polygon points="-275.6,320.9 -275.8,320.9 -275.8,320.7 -279,319.9 -278.2,323.2 				"/>
			</g>
			<g>
				<polygon points="-274.4,314.9 -273.4,318.3 -270.9,315.7 				"/>
			</g>
			<g>
				<polygon points="-273.4,318.3 -276.8,317.5 -275.8,320.7 -275.6,320.9 				"/>
			</g>
			<g>
				<polygon points="-286.5,327.4 -285.5,330.8 -283.1,328.4 				"/>
			</g>
			<g>
				<polygon points="-296.8,338.3 -294.8,341.2 -293.2,338.1 				"/>
			</g>
			<g>
				<polygon points="-296.2,344.4 -298.8,346.6 -295.6,348 				"/>
			</g>
			<g>
				<polygon points="-298.4,341.4 -296.4,344.4 -294.8,341.2 				"/>
			</g>
			<g>
				<polygon points="-280.6,325.8 -278.2,323.2 -281.5,322.4 -280.6,325.8 -283.9,324.8 -283.1,328.4 				"/>
			</g>
			<g>
				<path d="M-286.3,357.7l-1.4-1c0.2,0.6,0.4,1,0.4,1.6L-286.3,357.7z"/>
			</g>
			<g>
				<polygon points="-248.3,311.8 -247.5,308.4 -250.9,309.4 				"/>
			</g>
			<g>
				<polygon points="-259.6,303.8 -260.6,307.2 -257.2,306.2 				"/>
			</g>
			<g>
				<polygon points="-253.6,307 -250.9,309.2 -250.5,305.6 -253.6,307 -254.6,303.8 -257,306.2 -253.6,307.2 				"/>
			</g>
			<g>
				<path d="M-266.3,311.2l2.8-2.2h-0.2l3-1.8l-3.2-1.6v3.6l-3-1.4l0.4,3l-3-0.8l1,3.4L-266.3,311.2z"/>
			</g>
			<g>
				<polygon points="-268.5,313.3 -271.8,312.4 -270.9,315.7 				"/>
			</g>
			<g>
				<polygon points="-289.1,330 -288.1,333.3 -285.5,330.8 				"/>
			</g>
			<g>
				<polygon points="-291.4,332.3 -290.6,335.7 -288.1,333.3 				"/>
			</g>
			<g>
				<polygon points="-294,334.9 -293,338.3 -290.6,335.7 				"/>
			</g>
			<g>
				<polygon points="-266.5,344.6 -269.1,347 -265.7,348 -266.5,344.6 -263.1,345.4 -264.1,342 				"/>
			</g>
			<g>
				<polygon points="-260.8,342.8 -261.6,339.5 -264.1,342 				"/>
			</g>
			<g>
				<polygon points="-271.7,349.5 -274,351.9 -270.7,352.9 -271.7,349.5 -268.1,350.3 -269.1,347 				"/>
			</g>
			<g>
				<polygon points="-273.2,355.3 -274,351.9 -276.6,354.5 				"/>
			</g>
			<g>
				<polygon points="-258.2,340.4 -259.2,337.1 -261.6,339.5 				"/>
			</g>
			<g>
				<polygon points="-246.7,324.4 -249.1,327 -245.7,328 -246.7,324.4 -243.4,324.2 -245.3,321.3 -246.9,324.6 				"/>
			</g>
			<g>
				<polygon points="-255.6,337.9 -256.6,334.5 -259.2,337.1 				"/>
			</g>
			<g>
				<polygon points="-248.3,311.8 -246.1,314.5 -246.3,314.5 -244.9,317.7 -242.8,314.9 -245.9,314.5 -244.7,311.4 				"/>
			</g>
			<g>
				<polygon points="-245.1,321.5 -242,319.9 -244.9,317.9 				"/>
			</g>
			<g>
				<path d="M-296.6,349c0.4,0,1,0.2,1.4,0.4l-1.4-0.8V349z"/>
			</g>
			<g>
				<polygon points="-276.6,358.3 -276.4,354.7 -279.6,356.3 				"/>
			</g>
			<g>
				<path d="M-290.8,352.1C-290.6,352.1-290.6,352.1-290.8,352.1c0.2,0.2,0.2,0.2,0.2,0.2l0,0L-290.8,352.1z"/>
			</g>
			<g>
				<polygon points="-286.1,357.1 -284.9,360.4 -282.7,357.7 				"/>
			</g>
			<g>
				<path d="M-290.6,352.3C-290.4,352.3-290.4,352.3-290.6,352.3L-290.6,352.3L-290.6,352.3z"/>
			</g>
			<g>
				<polygon points="-253.3,335.5 -254,332.1 -256.6,334.5 				"/>
			</g>
			<g>
				<polygon points="-250.7,332.9 -251.7,329.6 -254,332.1 				"/>
			</g>
			<g>
				<polygon points="-279.8,359.8 -279.6,356.3 -282.7,357.9 				"/>
			</g>
			<g>
				<polygon points="-248.3,330.4 -249.1,327 -251.7,329.6 				"/>
			</g>
		</g>
		<g>
			<path d="M-300.5,337.5l-21.2,21.2c-1.6,1.6-1.6,4.4,0,6.1l18.6,18.6c1.6,1.6,4.4,1.6,6.1,0l21.2-21.2c1.6-1.6,1.6-4.4,0-6.1
				l-18.6-18.6C-296.2,335.9-299,335.9-300.5,337.5z M-290.6,368.5c-4.6,4.6-11.9,4.6-16.4,0c-4.6-4.6-4.6-11.9,0-16.4
				c4.6-4.6,11.9-4.6,16.4,0C-286.1,356.7-286.1,364-290.6,368.5z"/>
		</g>
		<g>
			<path d="M-294.6,356.1c-2.4-2.4-6.3-2.4-8.7,0s-2.4,6.3,0,8.7c2.4,2.4,6.3,2.4,8.7,0C-292.2,362.4-292.2,358.4-294.6,356.1z"/>
		</g>
		<g>
			<path d="M-258.4,320.9c0.2,0.2,0.2,0.4,0,0.6l-27.1,27.3c-0.2,0.2-0.4,0.2-0.6,0l-1-1c-0.2-0.2-0.2-0.4,0-0.6l27.1-27.1
				c0.2-0.2,0.4-0.2,0.6,0L-258.4,320.9z"/>
		</g>
	</g>
	<polygon points="-364.6,183.2 -386.4,184.2 -364.6,184.9 	"/>
	<polygon points="-315,183.2 -293.2,184.2 -315,184.9 	"/>
	<g>
		<path d="M-268.7,273.6c-0.2-0.2-0.4-0.4-0.6-0.4s-0.4-0.2-0.8-0.2h-2.6v4h2.6c0.2,0,0.6,0,0.8-0.2c0.2-0.2,0.4-0.2,0.6-0.4
			s0.4-0.4,0.4-0.6c0-0.2,0.2-0.4,0.2-0.8c0-0.2,0-0.6-0.2-0.8C-268.3,274-268.5,273.8-268.7,273.6z"/>
		<polygon points="-430.1,284.3 -426,284.3 -428.1,278.7 		"/>
		<path d="M-315.4,277.3c0.2-0.2,0.6-0.2,0.8-0.4c0.2-0.2,0.4-0.4,0.4-0.8c0.2-0.2,0.2-0.6,0.2-0.8c0-0.4,0-0.6-0.2-0.8
			c-0.2-0.2-0.2-0.6-0.4-0.8s-0.4-0.4-0.8-0.4c-0.2-0.2-0.6-0.2-0.8-0.2h-2.8v4.4h2.8C-316,277.5-315.6,277.5-315.4,277.3z"/>
		<polygon points="-259.2,284.3 -254.8,284.3 -257,278.7 		"/>
		<path d="M-299,277.3c0.2-0.2,0.6-0.2,0.8-0.4c0.2-0.2,0.4-0.4,0.4-0.8c0.2-0.2,0.2-0.6,0.2-0.8c0-0.4,0-0.6-0.2-0.8
			c-0.2-0.2-0.2-0.6-0.4-0.8s-0.4-0.4-0.8-0.4c-0.2-0.2-0.6-0.2-0.8-0.2h-2.8v4.4h2.8C-299.5,277.5-299.2,277.5-299,277.3z"/>
		<path d="M-297.4,281.7c-0.2-0.2-0.6-0.4-1-0.6c-0.4-0.2-0.8-0.2-1.4-0.2h-3v5.7h3.2c0.4,0,0.8,0,1.2-0.2c0.4-0.2,0.6-0.4,1-0.6
			c0.2-0.2,0.4-0.6,0.6-1c0.2-0.4,0.2-0.8,0.2-1.2s0-0.8-0.2-1.2C-296.8,282.3-297,281.9-297.4,281.7z"/>
		<path d="M-313.8,281.7c-0.2-0.2-0.6-0.4-1-0.6c-0.4-0.2-0.8-0.2-1.4-0.2h-3v5.7h3.4c0.4,0,0.8,0,1.2-0.2c0.4-0.2,0.6-0.4,1-0.6
			c0.2-0.2,0.4-0.6,0.6-1c0.2-0.4,0.2-0.8,0.2-1.2s0-0.8-0.2-1.2C-313.4,282.3-313.6,281.9-313.8,281.7z"/>
		<path d="M-457,261.1v35H-224v-35H-457z M-260.4,267c1.8,0,3,1.4,3,3c0,1.8-1.4,3-3,3c-1.8,0-3-1.4-3-3
			C-263.5,268.4-262.2,267-260.4,267z M-436.3,289.6c-0.4,0.2-0.8,0.4-1,0.4c-0.6,0-1-0.2-1.4-0.8l-4.9-6.9l-1.8,1.8v4.2
			c0,0.4-0.2,0.8-0.6,1.2c-0.6,0.6-1.6,0.6-2.2,0c-0.4-0.4-0.6-0.8-0.6-1.2v-16.6c0-0.6,0.2-1,0.6-1.2c0.6-0.6,1.6-0.6,2.2,0
			c0.4,0.4,0.6,0.8,0.6,1.2v4.9l6.1-6.1c0.6-0.6,1.8-0.6,2.4,0c0.4,0.4,0.4,0.8,0.4,1.2c0,0.4-0.2,0.8-0.6,1.2l-5.7,5.7
			c0.2,0.2,0.4,0.2,0.4,0.4c0.2,0.2,0.4,0.6,0.8,1l2.6,3.6c0.6,0.8,1,1.4,1.4,2s0.8,1.2,1,1.6c0.4,0.6,0.6,1,0.6,1.4
			C-435.5,288.8-435.9,289.2-436.3,289.6z M-419.2,289.4c-0.2,0.4-0.8,0.4-1.2,0.4c-0.4,0-0.8-0.2-1.2-0.4c-0.2,0.2-0.4,0.2-0.6,0.4
			h-0.2c-0.8,0.2-1.6-0.2-1.8-1l-0.8-2h-6.3l0,0l0,0l-0.8,2c-0.4,0.8-1,1.2-1.8,1h-0.2c-0.8-0.2-1.2-0.8-1.2-1.6
			c0-0.2,0-0.2,0.4-1.2c0.2-0.4,0.4-1,0.8-1.8l2.2-5.5c0.4-1,0.8-2,1.2-3c0.4-1,0.8-2,1-2.8c0.4-0.8,0.6-1.6,0.8-2.2
			c0.2-0.6,0.4-1,0.4-1c0.4-0.6,1-1,1.6-1c0.8,0,1.4,0.4,1.6,1.2c0,0.2,0.2,0.4,0.4,1c0.2,0.6,0.6,1.2,0.8,2.2
			c0.4,0.8,0.6,1.8,1,2.8c0.4,1,0.8,2,1.2,3l1.2,3c0.4,1,0.8,1.8,1,2.6l0.8,1.8c0.4,1,0.4,1,0.4,1.2
			C-418.6,288.8-418.8,289.2-419.2,289.4z M-405.8,290h-10.3c-1,0-1.6-0.8-1.6-1.6v-16.8c0-0.4,0.2-0.8,0.6-1.2
			c0.6-0.6,1.6-0.6,2.2-0.2c0.4-0.2,0.8-0.4,1.2-0.4c1,0,1.6,0.8,1.6,1.6v15.2h6.5c1,0,1.6,0.8,1.6,1.6
			C-404,289.2-404.8,290-405.8,290z M-391.7,290H-402c-1,0-1.6-0.8-1.6-1.6v-16.8c0-0.4,0.2-0.8,0.4-1.2c0.6-0.6,1.6-0.6,2.2-0.2
			c0.2-0.2,0.8-0.4,1.2-0.4c1,0,1.6,0.8,1.6,1.6v15.2h6.5c1,0,1.6,0.8,1.6,1.6C-390.2,289.2-390.8,290-391.7,290z M-379.7,277.1
			c0.4,0,0.8,0.2,1.2,0.6c0.4,0.4,0.4,0.8,0.4,1.2c0,0.4-0.2,0.8-0.4,1c0.2,0.2,0.4,0.8,0.4,1.2c0,0.4-0.2,0.8-0.6,1.2
			c-0.4,0.4-0.8,0.4-1.2,0.4h-6.9v3.8h9.1c0.4,0,1,0.2,1.2,0.6s0.4,0.6,0.4,1c0,0.4-0.2,0.8-0.4,1c-0.2,0.4-0.8,0.6-1.4,0.6h-10.7
			c-0.4,0-1-0.2-1.2-0.6c-0.4-0.4-0.4-0.8-0.4-1.2V271c0-0.6,0.2-1,0.6-1.2s0.6-0.4,1-0.4h10.7c0.4,0,0.8,0.2,1.2,0.6
			c0.4,0.4,0.4,0.8,0.4,1.2s-0.2,0.8-0.4,1.2c-0.4,0.4-0.8,0.6-1.2,0.6h-9.1v4.2H-379.7z M-354,286.6c-0.4,0.8-1,1.4-1.8,2
			c-0.6,0.4-1.4,0.8-2.2,1c-0.8,0.2-1.6,0.4-2.4,0.4c-1.4,0-2.8-0.2-4-0.8s-2.4-1.4-3.4-2.2c-0.4-0.4-0.6-1-0.6-1.2
			c0-0.2,0-0.8,0.4-1.2c0.4-0.4,0.8-0.6,1.2-0.6c0.4,0,0.8,0,1.2,0.4c0.8,0.6,1.6,1.2,2.4,1.6c1.2,0.6,2.8,0.8,4.2,0.4
			c0.4-0.2,0.8-0.4,1.2-0.6c0.4-0.2,0.6-0.6,0.8-0.8c0.2-0.4,0.2-0.6,0.2-1.2c0-0.2,0-0.6-0.2-0.8c-0.2-0.2-0.4-0.4-0.6-0.6
			c-0.4-0.2-0.8-0.4-1.2-0.6c-0.6-0.2-1-0.4-1.6-0.4c-0.6-0.2-1-0.2-1.6-0.4c-0.6-0.2-1-0.2-1.4-0.4c-0.6-0.2-1.2-0.4-1.6-0.6
			c-0.6-0.2-1-0.6-1.6-1.2c-0.4-0.4-0.8-1-1-1.6s-0.4-1.4-0.4-2c0-1,0.2-2,0.8-2.6c0.4-0.8,1-1.4,1.8-1.8c0.6-0.4,1.4-0.8,2.2-1
			c1.2-0.4,2.4-0.4,4-0.2c0.6,0,1.2,0.2,1.8,0.4c0.6,0.2,1.2,0.4,1.6,0.6c0.6,0.2,1,0.6,1.4,1l0.2,0.2c0.2,0.2,0.4,0.6,0.4,1
			c0,0.4-0.2,0.8-0.6,1.2c-0.6,0.6-1.6,0.6-2,0.2c-0.2,0-0.2-0.2-0.4-0.2l-0.6,0c-0.4-0.2-1.2-0.6-1.8-0.8c-1-0.4-2.2-0.4-3.4-0.2
			c-0.4,0.2-0.8,0.2-1.2,0.6c-0.4,0.2-0.6,0.4-0.8,0.8c-0.2,0.2-0.2,0.6-0.2,1c0,0.4,0,0.8,0.2,1c0.2,0.2,0.4,0.6,0.8,0.8
			c0.4,0.2,1,0.4,1.6,0.6c0.6,0.2,1.4,0.4,2,0.4c0.8,0.2,1.4,0.4,2.2,0.6c0.8,0.2,1.6,0.6,2.2,1c0.8,0.4,1.2,1,1.8,1.6
			c0.4,0.8,0.6,1.6,0.6,2.6C-353.4,284.9-353.6,285.8-354,286.6z M-340.1,274.8c-0.4,0.4-0.8,0.6-1.2,0.6h-3.8v13.1
			c0,0.4-0.2,1-0.6,1.2c-0.2,0.2-0.6,0.4-1.2,0.4c-0.4,0-0.8-0.2-1-0.4c-0.4-0.4-0.6-0.8-0.6-1.2v-13.1h-3.8c-0.4,0-1-0.2-1.2-0.6
			c-0.2-0.4-0.4-0.8-0.4-1.2c0-0.4,0.2-0.8,0.4-1l0,0c-0.2-0.2-0.4-0.6-0.4-1c0-0.4,0.2-0.8,0.4-1.2c0.4-0.4,0.8-0.6,1.2-0.6h10.7
			c0.4,0,0.8,0.2,1.2,0.6c0.4,0.4,0.4,0.8,0.4,1.2c0,0.4-0.2,0.8-0.4,1l0,0c0.2,0.4,0.4,0.6,0.4,1
			C-339.7,274-339.9,274.4-340.1,274.8z M-326.1,284.3c0,0.8-0.2,1.6-0.4,2.2c-0.2,0.6-0.6,1.2-1.2,1.8c-0.6,0.6-1.2,1-1.8,1.2
			c-0.8,0.4-1.4,0.4-2.2,0.4h-1.8c-0.8,0-1.6-0.2-2.2-0.4c-0.6-0.2-1.2-0.8-1.8-1.2c-0.6-0.6-1-1.2-1.2-1.8
			c-0.2-0.6-0.4-1.4-0.4-2.2v-12.9c0-0.4,0.2-0.8,0.4-1.2c0.6-0.6,1.8-0.6,2.4,0c0.4,0.4,0.6,0.8,0.6,1.2v12.9c0,0.4,0,0.6,0.2,0.8
			c0.2,0.2,0.4,0.6,0.6,0.8s0.4,0.4,0.8,0.6c0.2,0.2,0.6,0.2,0.8,0.2h1.6c0.4,0,0.6,0,0.8-0.2s0.6-0.2,0.8-0.6
			c0.2-0.2,0.4-0.4,0.6-0.8c0.2-0.2,0.2-0.6,0.2-0.8v-12.9c0-0.4,0.2-0.8,0.4-1.2c0.6-0.6,1.8-0.6,2.4,0c0.4,0.4,0.6,0.8,0.6,1.2
			v12.9H-326.1z M-310,286c-0.4,0.8-0.8,1.4-1.4,2c-0.6,0.6-1.2,1-2,1.4c-0.8,0.4-1.6,0.6-2.4,0.6h-4.9c-0.4,0-0.8-0.2-1-0.4l0,0
			c-0.4,0.2-0.6,0.4-1,0.4c-0.4,0-0.8-0.2-1.2-0.4c-0.4-0.2-0.6-0.8-0.6-1.2v-16.8c0-1,0.8-1.6,1.6-1.6h6.5c0.8,0,1.4,0.2,2.2,0.4
			c0.6,0.2,1.2,0.6,1.8,1.2c0.4,0.6,0.8,1,1.2,1.8c0.4,0.6,0.4,1.4,0.4,2.2c0,1-0.2,2-0.8,3c-0.2,0.2-0.4,0.4-0.4,0.6
			c0.4,0.4,0.8,0.8,1.2,1.2c0.4,0.6,0.6,1,0.8,1.8c0.2,0.6,0.4,1.4,0.4,2C-309.6,284.7-309.8,285.4-310,286z M-293.6,286
			c-0.4,0.8-0.8,1.4-1.4,2c-0.6,0.6-1.2,1-2,1.4c-0.8,0.4-1.6,0.6-2.4,0.6h-4.9c-0.4,0-0.8-0.2-1-0.4l0,0c-0.4,0.2-0.6,0.4-1,0.4
			s-0.8-0.2-1.2-0.4c-0.4-0.2-0.6-0.8-0.6-1.2v-16.8c0-1,0.8-1.6,1.6-1.6h6.5c0.8,0,1.6,0.2,2.2,0.4c0.6,0.2,1.2,0.6,1.8,1.2
			c0.4,0.6,1,1,1.2,1.8c0.4,0.6,0.4,1.4,0.4,2.2c0,1-0.2,2-0.8,3c-0.2,0.2-0.4,0.4-0.4,0.6c0.4,0.4,0.8,0.8,1.2,1.2
			c0.4,0.6,0.6,1,0.8,1.8c0.2,0.6,0.4,1.4,0.4,2C-293.2,284.7-293.4,285.4-293.6,286z M-268.3,280.3c0,0.2,0.2,0.4,0.4,0.8l2.8,6.3
			c0.2,0.6,0.4,0.8,0.4,1.2c0,0.6-0.2,1-0.6,1.4c-0.4,0.2-0.6,0.4-1,0.4c-0.6,0-1.2-0.4-1.6-1l-3-6.5h-1.6v5.7c0,0.6-0.2,1-0.6,1.2
			c-0.6,0.4-1.4,0.4-2,0l0,0c-0.6,0.6-1.6,0.4-2.2-0.2c-0.4-0.2-0.4-0.8-0.4-1.2V272c-0.2,0.8-0.8,1.2-1.6,1.2h-9.1v4.2h6.7
			c0.4,0,0.8,0.2,1,0.4c0.4,0.4,0.6,0.8,0.6,1.2c0,0.4-0.2,0.8-0.4,1c0.2,0.4,0.4,0.8,0.4,1.2c0,0.4-0.2,0.8-0.6,1.2
			c-0.4,0.4-0.8,0.6-1.2,0.6h-6.9v5.5c0,1-0.8,1.6-1.6,1.6c-0.4,0-0.8-0.2-1.2-0.6c-0.4-0.4-0.4-0.8-0.4-1.2v-16.8
			c0-1,0.8-1.6,1.6-1.6h10.7c0.8,0,1.6,0.6,1.6,1.4c0.2-0.8,0.8-1.4,1.6-1.4h6.3c0.8,0,1.4,0.2,2,0.4s1.2,0.6,1.8,1.2
			c0.4,0.4,0.8,1,1.2,1.6c0.2,0.6,0.4,1.4,0.4,2s-0.2,1.4-0.4,2c-0.2,0.6-0.6,1.2-1,1.6c-0.4,0.4-1,0.8-1.4,1.2
			C-267.9,279.9-268.1,279.9-268.3,280.3C-268.5,280.1-268.3,280.1-268.3,280.3z M-248.1,289.4c-0.2,0.2-0.8,0.4-1.2,0.4
			s-0.8-0.2-1.2-0.4c-0.2,0.2-0.4,0.2-0.6,0.4h-0.2c-0.8,0.2-1.6-0.2-1.8-1l-0.8-2h-6.1l0,0h-0.2l-0.8,2c-0.4,0.8-1,1.2-1.8,1h-0.2
			c-0.8-0.2-1.2-0.8-1.2-1.6c0-0.2,0-0.2,0.4-1.2c0.2-0.4,0.4-1,0.8-1.8l2.2-5.5c0.4-1,0.8-2,1.2-3c0.4-1,0.8-2,1-2.8
			c0.4-0.8,0.6-1.6,0.8-2.2c0.2-0.6,0.4-1,0.4-1c0.4-0.8,0.8-1,1.6-1c0.4,0,0.8,0.2,1.2,0.4V270c0-1.8,1.4-3,3-3c1.8,0,3,1.4,3,3
			c0,1.8-1.4,3-3,3c-0.8,0-1.6-0.4-2.2-0.8c0.2,0.6,0.4,1,0.6,1.8c0.4,0.8,0.6,1.8,1,2.8c0.4,1,0.8,2,1.2,3s0.8,2,1.2,3
			s0.8,1.8,1,2.6l0.8,1.8c0.4,1,0.4,1,0.4,1.2C-247.5,288.8-247.7,289.2-248.1,289.4z M-233.9,286.6c-0.4,0.8-1,1.4-1.8,2
			c-0.6,0.4-1.4,0.8-2.2,1s-1.6,0.4-2.4,0.4c-1.4,0-2.8-0.2-4-0.8c-1.2-0.6-2.4-1.4-3.4-2.2c-0.4-0.4-0.6-1-0.6-1.2
			c0-0.2,0-0.8,0.4-1.2c0.6-0.6,1.8-0.8,2.4,0c0.8,0.6,1.6,1.2,2.4,1.6c1.2,0.6,2.8,0.8,4.2,0.4c0.4-0.2,0.8-0.4,1.2-0.6
			c0.4-0.2,0.6-0.6,0.8-0.8c0.2-0.4,0.2-0.6,0.2-1.2c0-0.2,0-0.6-0.2-0.8s-0.4-0.4-0.6-0.6c-0.4-0.2-0.8-0.4-1.2-0.6
			c-0.6-0.2-1-0.4-1.6-0.4c-0.6-0.2-1-0.2-1.6-0.4s-1-0.2-1.4-0.4c-0.6-0.2-1.2-0.4-1.6-0.6c-0.6-0.2-1-0.6-1.6-1.2
			c-0.4-0.4-0.8-1-1-1.6c-0.2-0.6-0.4-1.4-0.4-2c0-1,0.2-1.8,0.8-2.6c0.4-0.8,1-1.4,1.8-1.8c0.6-0.4,1.4-0.8,2.2-1
			c1.2-0.4,2.4-0.4,4-0.2c0.6,0,1.2,0.2,1.8,0.4c0.6,0.2,1.2,0.4,1.6,0.6c0.6,0.2,1,0.6,1.4,1l0.2,0.2c0.2,0.2,0.4,0.6,0.4,1
			c0,0.4-0.2,0.8-0.6,1.2c-0.6,0.6-1.6,0.4-2,0.2c-0.2,0-0.2-0.2-0.4-0.2l-0.4-0.4c-0.4-0.2-1.2-0.6-1.8-0.8c-1-0.4-2.2-0.4-3.4-0.2
			c-0.4,0.2-0.8,0.2-1.2,0.6c-0.4,0.2-0.6,0.4-0.8,0.8c-0.2,0.2-0.2,0.6-0.2,1c0,0.4,0,0.8,0.2,1c0.2,0.2,0.4,0.6,0.8,0.8
			c0.4,0.2,1,0.4,1.6,0.6c0.6,0.2,1.4,0.4,2,0.4c0.8,0.2,1.4,0.4,2.2,0.6s1.6,0.6,2.2,1c0.8,0.4,1.2,1,1.8,1.6
			c0.4,0.8,0.6,1.6,0.6,2.6C-233.3,284.9-233.5,285.8-233.9,286.6z"/>
		<path fill="#FFFFFF" d="M-278,271.2v0.2v0.4c0-0.2,0-0.4,0-0.4V271.2z"/>
	</g>
	<g>
		<path d="M-366.8,394.5c0,0.4-0.2,0.8-0.2,1.2h12.9l-12.7-1.8C-366.8,394.1-366.8,394.3-366.8,394.5z"/>
		<path d="M-406.2,378.8h2l-2.2-1.4C-406.4,378.6-406.2,378.8-406.2,378.8z"/>
		<path d="M-411.9,373.9l2.6,2.8c0.2-0.2,0.4-0.6,0.6-0.8L-411.9,373.9L-411.9,373.9z"/>
		<polygon points="-345.8,395.6 -354.2,395.6 -345.8,396.6 		"/>
		<path d="M-397.7,362.8c-0.2,4-0.6,7.9-1.4,11.5c-0.6,3.4-1,5.5-1.6,7.1l7.1,4.2c0.8-1.6,0.8-2.6,1.8-7.9c0.8-4.4,1.2-9.1,1.4-14.2
			c-0.8,0-1.6,0.2-2.6,0.2C-394.3,363.2-396.1,363-397.7,362.8z"/>
		<path d="M-346.6,373.1l-12.1-24.9h-8.1c-0.4,0.6-0.8,1.2-1,1.8c3,17.6,3.4,32.1,1.2,43.7l12.7,1.8h8.3L-346.6,373.1z"/>
		<path d="M-405,367.4c-1,5.5-1.2,8.7-1.2,10.3l2.2,1.4h0.6c2-2,2.4,0,2.6,0.4c0-0.6,0.4-3.8,1-6.5c0.6-3.2,1-6.7,1.2-10.3
			c-1.8-0.4-3.6-1-5.1-1.6C-404.4,363.2-404.6,365.2-405,367.4z"/>
		<path d="M-413.5,362c0,0.2-2.6,7.1-2.6,7.5l4.2,4.4l0,0l3.2,2c2.6-3.8,1.2-2.4,2.6-9.9c0.4-1.8,0.6-3.8,0.8-5.7
			c-2-1-4-2.2-5.7-3.6L-413.5,362z"/>
		<path d="M-390.6,378.4c-0.6,2.8-1.2,5.1-1.8,7.5l9.5,5.1c0.4-1.8,1-3.6,1.2-5.3c1.4-7.1,1.6-15.4,1-24.9c-2.8,1.2-5.5,2-8.5,2.4
			C-389.2,368.5-389.6,373.7-390.6,378.4z"/>
		<path d="M-379.5,360c0.8,10.1,0.4,18.8-1,26.3c-0.4,1.8-0.8,3.4-1.2,4.9l1.6,0.8l11.9,1.4l0.8,0.2c2.2-11.3,1.8-25.3-1.2-42.5
			C-371.6,354.9-375.1,358.1-379.5,360z"/>
		<path fill="#FFFFFF" d="M-390.8,348.4h-7.1c0,1,0,1.8,0.2,2.6l6.9-2C-390.8,348.8-390.8,348.6-390.8,348.4z"/>
		<path fill="#FFFFFF" d="M-399.3,348.4h-4.4c0,1.4,0,2.8,0,4.4l4.6-1.2C-399.1,350.3-399.1,349.3-399.3,348.4z"/>
		<path fill="#FFFFFF" d="M-389.8,348.4c0,0.2,0,0.4,0,0.4l1.8-0.4H-389.8z"/>
	</g>
	<polygon points="-418.6,348.6 -420,348.6 -420,349.7 	"/>
	<polygon points="-434.5,340.1 -435.7,340.1 -435.7,341 	"/>
	<polygon points="-418.1,354.1 -418.8,353.1 -419.6,353.7 	"/>
	<polygon points="-426.6,341.2 -427.4,340.2 -428.1,341 	"/>
	<polygon points="-423.2,348 -423.8,348.2 -423.8,348.6 	"/>
	<polygon points="-430.3,341.4 -431.9,340.4 -432.7,341.8 	"/>
	<polygon points="-415.5,356.9 -414.7,354.5 -416.7,353.7 	"/>
	<polygon points="-426.6,339.3 -425.8,336.7 -427.7,336.1 	"/>
	<polygon points="-425.2,352.1 -421.4,351.9 -421.6,348.8 	"/>
	<polygon points="-429.7,343.4 -428.1,346.8 -425.6,345.6 	"/>
	<polygon points="-433.5,338.5 -430.9,335.5 -433.3,333.5 	"/>
	<polygon points="-424.2,343.8 -421.6,344.2 -421.4,342 	"/>
	<g>
		<circle fill="none" cx="-386.4" cy="353.3" r="0.6"/>
		<circle fill="none" cx="-390.2" cy="354.1" r="0.6"/>
		<path d="M-384.4,353.3l-0.2-0.6l-0.2-0.6l-0.4-0.6l-0.6-0.6l-0.6-0.4l-0.4-0.2l-0.6-0.2l-0.6-0.2h-0.8l-1,0.2l-0.6,0.2l-0.6,0.4
			l-0.6,0.4l-0.4,0.4l-0.4,0.4l-0.2,0.6l-0.2,0.6v0.6v0.6l0.4,1l0.4,0.6l0.4,0.4l0.4,0.4l0.4,0.2l0.6,0.2h0.4l0.2,3.2v0.4l0.2,0.2
			l0.2,0.2h0.4l0.8-0.4l0.8-0.4l0.4-0.4l0.4-0.6l0.4-1l0.4-1l0.2-0.8l0.2-0.8l0.2-1v-0.6v-0.8L-384.4,353.3z M-390.2,354.9
			c-0.4,0-0.8-0.2-0.8-0.6c0-0.4,0.2-0.8,0.6-0.8s0.8,0.2,0.8,0.6C-389.6,354.3-389.8,354.7-390.2,354.9z M-386.2,353.9
			c-0.4,0-0.8-0.2-0.8-0.6s0.2-0.8,0.6-0.8c0.4,0,0.8,0.2,0.8,0.6S-385.8,353.9-386.2,353.9z"/>
	</g>
	<g>
		<path d="M-370.4,341.6l-0.6,0.2l-1,0.2h-1.6l-1.6-0.6l-1.2-1l-0.8-1.2l-0.4-1.6v-0.6l0.4-2.2l0.4-0.8l0.4-0.4l1.4-1l0.8-0.2
			l0.8-0.2l0.8-0.2h0.6l1,0.2l1.2,0.4l0.8,0.4l0.4,0.2c0-1.6-0.2-3-0.6-4.6c-0.2-0.4-0.2-1-0.4-1.4l-13.1,6.5
			c0,4.9-3.4,9.5-8.5,10.3c-4,0.6-7.5-1.2-10.1-4.2l-15.8-5.1c0,1.2,0.2,2.8,0.4,4c0.4,2.2,1.2,4.2,2.2,5.9l0.2-0.4l0.2-0.6l0.6-1
			l1-1l1.6-0.8l1.4-0.2l1.4,0.2l1.6,0.8l0.6,0.6l1.2,1.8l0.2,0.8v0.6l-0.2,1.8l-0.2,0.8l-0.4,0.8l-0.6,0.8l-0.4,0.4l-0.8,0.6l-2,1
			h-0.2c4.7,4.4,11.3,6.9,18,6.5l0,0l-0.6-0.6l-0.4-0.4l-0.6-1l-0.4-1.4v-0.8v-1l0.6-1.6l0.8-1l1.4-1l0.6-0.2l1-0.2l1-0.2l1,0.2
			l1.2,0.6l0.8,0.6l0.6,0.6l0.6,0.8l0.4,0.8l0.2,0.6l0.2,1v1.4l-0.2,1c6.7-2.8,11.7-8.3,13.8-15l0,0L-370.4,341.6z"/>
		<path d="M-388,357.7l0.2,2.8l0.8-0.4l0.2-0.2l0.4-0.6l0.8-2.2c-0.6,0.2-1.2,0.4-1.8,0.6C-387.8,357.7-388,357.7-388,357.7z"/>
		<path d="M-415.1,349.7l0.6,0.4h0.4h0.6l2.4-0.4c-0.6-0.6-1-1.2-1.4-1.8L-415.1,349.7z"/>
		<g>
			<path d="M-405.6,345.2l-0.2-0.6l-0.4-0.6l-0.6-0.8l-0.4-0.4l-0.6-0.2l-0.6-0.2h-0.6h-0.6h-0.6l-0.6,0.2l-0.6,0.4l-0.6,0.4
				l-0.8,0.8l-0.4,0.6l-0.2,0.6l-0.2,0.6v0.6l0.2,0.6l0.2,0.4l-2.8,1.8l-0.4,0.4l-0.2,0.2v0.4l0.2,0.4l0.8,0.6l0.8,0.4l0.6,0.2h0.8
				l1-0.2l1-0.2l0.8-0.2l0.8-0.2l0.8-0.4l0.6-0.2l0.6-0.4l0.6-0.4l0.4-0.4l0.4-0.4l0.4-0.8l0.2-0.8v-0.8V346L-405.6,345.2z
				 M-410.1,345c-0.2,0.2-0.8,0.2-1,0c-0.2-0.2-0.2-0.8,0-1c0.2-0.2,0.8-0.2,1,0C-409.9,344.4-409.9,344.8-410.1,345z M-407.6,348
				c-0.2,0.2-0.8,0.2-1,0s-0.2-0.8,0-1s0.8-0.2,1,0C-407.4,347.4-407.4,347.8-407.6,348z"/>
		</g>
		<path d="M-366.2,337.7l-0.2-0.2l-0.4-0.4l-1.6-1.2c0,0.8-0.2,1.4-0.2,2.2l2.6,0.6L-366.2,337.7z"/>
		<path fill="#FFFFFF" d="M-366.8,337.1l0.4,0.4l0.2,0.2l0.2,0.8l-2.6-0.6c0,0.4-0.2,0.8-0.2,1l3,0.6h0.4h0.4l0.2-0.2l0.2-0.4v-0.8
			l-0.6-0.8l-0.4-0.6l-0.6-0.6l-0.8-0.6l-0.8-0.6l-0.6-0.4c0,0.4,0,1,0,1.4L-366.8,337.1z"/>
	</g>
	<g>
		<polygon fill="#FFFFFF" points="-369,339.1 -369,339.1 -369.2,339.1 		"/>
		<path d="M-369.8,334.9l-1-0.4c0,0.2,0,0.4,0,0.6c0,1-0.8,1.6-1.8,1.6h-0.2c-0.4,0-1-0.2-1.2-0.6s-0.4-0.8-0.4-1.2l-0.8,0.6v0.2
			l-0.2,1.4v0.4l0.4,1l0.4,0.4c0,0,0,0,0-0.2c0-1,0.8-1.6,1.8-1.6h0.2c1,0.2,1.6,1,1.6,2c0,0.2,0,0.4-0.2,0.6h0.2l0.6-0.4l0.8-1.6
			l1,0.2c0.2-0.8,0.2-1.4,0.2-2.2l-0.6-0.6L-369.8,334.9z"/>
		<path d="M-365,338.1l-0.2-0.8l-0.4-0.6l-0.6-0.6l-0.8-0.6l-0.8-0.6l-0.8-0.4l-0.6-0.6l-0.8-0.4l-0.6-0.2l-0.6-0.2l-0.8-0.2h-0.6
			h-0.6l-0.8,0.2l-0.8,0.2l-0.4,0.8l-0.4,0.4l-0.4,0.4l-0.2,0.6l-0.2,0.8l-0.2,1v0.6l0.2,0.6l0.2,0.6l0.4,0.4l0.2,0.4l0.4,0.4
			l0.6,0.4l0.6,0.2h0.8h1.2h0.8l0.6-0.2l0.6-0.4l0.4-0.4l0.4-0.6l0.2-0.4h0.2l3,0.6h0.4h0.4l0.2-0.2l0.2-0.4L-365,338.1z
			 M-372.6,334.3c0.4,0,0.6,0.4,0.6,0.8s-0.4,0.6-0.8,0.6s-0.6-0.4-0.6-0.8C-373.1,334.5-372.7,334.3-372.6,334.3z M-372.9,339.5
			c-0.4,0-0.6-0.4-0.6-0.8c0-0.4,0.4-0.6,0.8-0.6s0.6,0.4,0.6,0.8C-372.4,339.3-372.6,339.5-372.9,339.5z"/>
	</g>
	<polygon points="-434.5,330.8 -427,311.6 -427.7,306 -453.9,303.6 -452.7,315.3 -446.1,331.3 	"/>
	<g>
		<path d="M-361.3,176h1.6v15.2h-2v-11.5h-1.2v-1.6c0.4-0.2,0.8-0.4,1-0.6C-361.5,177-361.3,176.6-361.3,176z"/>
		<path d="M-355.3,184.7c-0.2,0.2-0.4,0.2-0.6,0.4c-0.2,0-0.4,0.2-0.6,0.2c-0.6,0-1-0.2-1.2-0.6c-0.2-0.4-0.4-1-0.4-1.8v-4
			c0-1.4,0.2-2.2,0.4-2.4c0.4-0.4,1-0.4,2-0.4c1,0,1.8,0.2,2,0.4c0.4,0.4,0.4,1.2,0.4,2.4v9.5c0,1.4-0.2,2.2-0.4,2.4
			c-0.4,0.4-1,0.4-2,0.4c-1,0-1.6-0.2-2-0.4c-0.4-0.4-0.4-1.2-0.4-2.4v-2.4h2.2v3.2c0,0.2,0,0.4,0,0.4l0.2,0.2c0.2,0,0.2,0,0.2-0.2
			c0,0,0-0.2,0-0.4v-4.6H-355.3z M-355.9,183c0,0.2,0,0.4,0,0.4l0.2,0.2c0.2,0,0.2,0,0.2-0.2c0,0,0-0.2,0-0.4v-4.7
			c0-0.2,0-0.4,0-0.4l-0.2-0.2c-0.2,0-0.2,0-0.2,0.2c0,0,0,0.2,0,0.4V183z"/>
	</g>
	<g>
		<path d="M-326.5,183c-0.4,0-0.6-0.2-0.8-0.6c-0.2-0.2-0.2-0.8-0.2-1.4v-2c0-1.4,0.2-2.2,0.4-2.4c0.4-0.4,1-0.4,2-0.4
			c1,0,1.6,0.2,2,0.4c0.4,0.4,0.4,1.2,0.4,2.4v2c0,0.6,0,1.2-0.2,1.4c-0.2,0.2-0.4,0.4-0.8,0.6c0.4,0,0.6,0.2,0.8,0.6
			c0.2,0.2,0.2,0.8,0.2,1.4v3.4c0,1.4-0.2,2.2-0.4,2.4c-0.4,0.4-1,0.4-2,0.4c-1,0-1.6-0.2-2-0.4c-0.4-0.4-0.4-1.2-0.4-2.4v-3.4
			c0-0.6,0-1.2,0.2-1.4C-327,183.2-326.8,183-326.5,183z M-325.5,181.4c0,0.2,0,0.4,0,0.4l0.2,0.2c0.2,0,0.2,0,0.2-0.2
			c0,0,0-0.2,0-0.4V178c0-0.2,0-0.4,0-0.4l-0.2-0.2c-0.2,0-0.2,0-0.2,0.2c0,0,0,0.2,0,0.4V181.4z M-325.5,184.3v4.7
			c0,0.2,0,0.4,0,0.4l0.2,0.2c0.2,0,0.2,0,0.2-0.2c0,0,0-0.2,0-0.4v-4.7c0-0.2,0-0.4,0-0.4l-0.2-0.2c-0.2,0-0.2,0-0.2,0.2
			C-325.3,184-325.5,184.2-325.5,184.3z"/>
		<path d="M-316.8,178.8v2.4h-2V178c0-0.2,0-0.4,0-0.4l-0.2-0.2c0,0-0.2,0-0.2,0.2c0,0,0,0.2,0,0.4v4.6c0.2-0.2,0.4-0.2,0.6-0.4
			c0.2,0,0.4-0.2,0.6-0.2c0.6,0,1,0.2,1.2,0.6c0.2,0.4,0.4,1,0.4,1.8v4c0,1.4-0.2,2.2-0.4,2.4c-0.4,0.4-1,0.4-2,0.4s-1.8-0.2-2-0.4
			c-0.4-0.4-0.4-1.2-0.4-2.4v-9.5c0-1.4,0.2-2.2,0.4-2.4c0.4-0.4,1-0.4,2-0.4s1.6,0.2,2,0.4C-316.8,176.8-316.8,177.6-316.8,178.8z
			 M-318.7,184.3c0-0.2,0-0.4,0-0.4l-0.2-0.2c0,0-0.2,0-0.2,0.2c0,0,0,0.2,0,0.4v4.7c0,0.2,0,0.4,0,0.4l0.2,0.2c0,0,0.2,0,0.2-0.2
			c0,0,0-0.2,0-0.4V184.3z"/>
	</g>
	<g>
		<path d="M-234.9,254.2c0.2-0.8-0.4-2.4-1.8-3.2c-1.4-0.8-3.2,0.4-3.2,0.4c-1.6-0.2-4.7-1.6-6.9-3.4s-4.2-4-4.7-5.7
			s-0.8-3.2-0.6-4.2c0-1-1.2-3.4-3.2-3.2c-0.4-1.2-0.2-1,0-1.2c0-0.2,0-0.6,0-0.6l1-0.8h-1.2l1-0.8h-1.2l1-0.8h-1.2l1-0.8h-1.2
			l1-0.8h-1.2l1-0.8h-1.2l0-0.4h-1.2l1-0.8h-1.2l1-0.8h-1.2l1-0.8h-1.2l1-0.8l-1.2,0.2l1-0.8h-1.2l1-0.8h-1.2l1-0.8h-1.2l1-0.8h-1.2
			l1-0.8h-1.2l1-0.8l-1.2,0.2l1-0.8l-1.2,0.2l1-0.8h-1.2l1-0.8h-1.2l1-0.8h-1.2l1-0.8h-1.2l1-0.8h-1.2l-0.2-1l-1.2,1.8
			c0.8,4.9,3.6,14.6,5.1,18.6c1.6,4,4.7,11.1,8.9,14.6c4.2,3.6,8.9,6.1,11.9,6.1C-235.6,257-235.1,255-234.9,254.2z M-255,239
			c-0.4,0-0.8-0.2-1-0.6c0-0.4,0.2-0.8,0.6-1c0.4,0,0.8,0.2,1,0.6C-254.4,238.4-254.6,238.8-255,239z"/>
	</g>
	<g>
		<path d="M-382.2,331.7c-0.2,0-0.2,0-0.4,0s-0.4-0.2-0.4-0.4c-1-3.2-2.8-5.1-5.1-6.3c-2.2-1-4.6-1.4-6.7-0.6l-21.8-6.9
			c-0.2,0-0.4-0.2-0.6-0.4c0-0.2,0-0.4,0-0.8c2.2-3.2,5.3-7.5,10.9-10.5c7.7-4,15.4-4.7,22.8-2.8c9.7,2.8,15.8,11.7,18.4,19.2
			c0.2,0.4,0,0.8-0.4,1l-16.4,8.5H-382.2z M-392.5,322c1.2,0,2.6,0.4,3.4,0.6c3.6,1,6.1,4,7.5,7.1l15-7.9c-2.6-6.9-8.1-15-17-17.6
			c-6.9-2-14-1-21.6,2.8c-4.9,2.4-7.7,5.9-9.7,8.9l21,6.1C-393.7,322-393.1,322-392.5,322z"/>
		<path d="M-382.4,330.6c-0.2,0-0.2,0-0.2,0c-0.2,0-0.4-0.2-0.4-0.4c-1-3-3.4-5.3-6.5-6.3c-0.6-0.2-1.8-0.4-2.8-0.4
			c-0.6,0-1.2,0-1.4,0.2c-0.2,0-0.2,0-0.4,0l-21.4-6.5c-0.2,0-0.4-0.2-0.4-0.4s0-0.4,0-0.6c2.2-3.2,4.9-7.1,10.5-9.7
			c7.5-3.8,14.8-4.6,21.8-2.6c9.3,2.6,15,11.3,17.4,18.4c0.2,0.4,0,0.8-0.4,1l-15.4,7.7C-382.2,330.6-382.4,330.6-382.4,330.6z
			 M-392.5,321.8c1.2,0,2.4,0.4,3.2,0.6c3.4,1,6.1,3.4,7.3,6.5l14-7.1c-2.4-6.7-7.7-14.4-16.2-16.8c-6.5-1.8-13.5-1-20.6,2.6
			c-4.6,2.4-7.3,5.7-9.3,8.5l20.2,5.9C-393.5,321.8-392.9,321.8-392.5,321.8z"/>
		<path d="M-433.9,327.4l32.4,10.3c-0.8-2-0.8-4.6-0.2-6.7c0.4-2,1.6-3.8,4.6-5.5l-31.7-10.3L-433.9,327.4z"/>
		<path d="M-390.6,326.6c-0.8-0.2-1.4-0.2-2.2-0.2c-4.2,0.2-7.3,3.8-7.1,7.9c0.2,3.4,2.6,6.1,5.7,6.9c0.8,0.2,1.4,0.2,2.2,0.2
			c2-0.2,4-1,5.1-2.6c1.4-1.6,2-3.4,2-5.5C-384.8,330.2-387.2,327.4-390.6,326.6z"/>
	</g>
	<path d="M-260,286c-0.2,0-0.4-0.2-0.4-0.4s0.2-0.4,0.4-0.4h7.5l0,0c0.2,0,0.4,0.2,0.4,0.4s-0.2,0.4-0.4,0.4H-260L-260,286z"/>
	<path d="M-260.4,272.2c-1.2,0-2-1-2-2c0-1.2,1-2,2-2c1.2,0,2,1,2,2C-258.4,271.2-259.2,272.2-260.4,272.2z M-260.4,268.6
		c-0.8,0-1.4,0.6-1.4,1.4c0,0.8,0.6,1.4,1.4,1.4c0.8,0,1.4-0.6,1.4-1.4S-259.6,268.6-260.4,268.6z"/>
	<path d="M-251.7,272.2c-1.2,0-2-1-2-2c0-1.2,1-2,2-2c1.2,0,2,1,2,2C-249.7,271.2-250.5,272.2-251.7,272.2z M-251.7,268.6
		c-0.8,0-1.4,0.6-1.4,1.4c0,0.8,0.6,1.4,1.4,1.4c0.8,0,1.4-0.6,1.4-1.4S-250.9,268.6-251.7,268.6z"/>
	<path d="M-405.8,288h-7.9v-16.4c0-0.2-0.2-0.4-0.4-0.4c0,0-0.2,0-0.2,0.2l-0.2,0.2V288h-1.4v-16.4c0,0,0-0.2-0.2-0.2l-0.2-0.2
		c0,0-0.2,0-0.2,0.2l-0.2,0.2v16.8c0,0.2,0.2,0.4,0.4,0.4h10.3c0.2,0,0.4-0.2,0.4-0.4C-405.4,288-405.6,288-405.8,288z"/>
	<path d="M-391.7,288h-7.9v-16.4c0-0.2-0.2-0.4-0.4-0.4c0,0-0.2,0-0.2,0.2l-0.2,0.2V288h-1.4v-16.4c0,0,0-0.2-0.2-0.2l-0.2-0.2
		c0,0-0.2,0-0.2,0.2v0.2v16.8c0,0.2,0.2,0.4,0.4,0.4h10.3c0.2,0,0.4-0.2,0.4-0.4C-391.3,288-391.5,288-391.7,288z"/>
	<path d="M-377.3,271.8c0,0,0.2,0,0.2-0.2l0.2-0.2c0,0,0-0.2-0.2-0.2l-0.2-0.2H-388h-0.2l-0.2,0.2V288c0,0.2,0,0.2,0.2,0.2l0.2,0.2
		h10.7c0.2,0,0.2,0,0.2-0.2V288c0,0,0-0.2-0.2-0.2l-0.2-0.2H-388v-6.1h8.1c0,0,0.2,0,0.2-0.2l0.2-0.2c0-0.2-0.2-0.4-0.4-0.4h-8.1
		v-1.6h8.1c0,0,0.2,0,0.2-0.2v-0.2v-0.2l-0.2-0.2h-8.1v-6.7h10.7V271.8z"/>
	<path d="M-356.5,280.7c-0.6-0.4-1.2-0.6-1.8-0.8s-1.4-0.4-2-0.6c-0.8-0.2-1.4-0.4-2-0.6c-0.6-0.2-1.2-0.4-1.8-0.6
		c-0.6-0.2-1-0.6-1.2-1.2c-0.4-0.4-0.4-1-0.4-1.8c0-0.6,0.2-1.2,0.4-1.6c0.4-0.4,0.8-0.8,1.2-1.2c0.4-0.2,1-0.6,1.6-0.6
		c0.6-0.2,1.2-0.2,1.8-0.2c0.8,0,1.6,0.2,2.4,0.4s1.4,0.6,2.2,1c0,0,0.2,0,0.2,0.2l0.2,0.2l0.2,0.2h0.2c0,0,0.2,0,0.2-0.2l0.2-0.2
		V273c0,0,0,0,0-0.2c-0.4-0.2-0.6-0.6-1.2-0.8c-0.4-0.2-1-0.4-1.4-0.6c-0.6-0.2-1-0.2-1.6-0.4c-0.6,0-1-0.2-1.4-0.2
		c-0.6,0-1.4,0-2,0.2c-0.6,0.2-1.2,0.4-1.8,0.8s-1,0.8-1.4,1.4c-0.4,0.6-0.6,1.2-0.6,2c0,0.6,0,1,0.2,1.6c0.2,0.4,0.4,0.8,0.8,1.2
		c0.4,0.4,0.8,0.6,1.2,0.8s1,0.4,1.4,0.6s0.8,0.2,1.4,0.4c0.6,0.2,1,0.2,1.6,0.4s1.2,0.4,1.6,0.4c0.6,0.2,1,0.4,1.4,0.8
		c0.4,0.2,0.8,0.6,1,1c0.2,0.4,0.4,0.8,0.4,1.4c0,0.6-0.2,1.2-0.4,1.8c-0.4,0.6-0.6,1-1.2,1.2c-0.4,0.4-1,0.6-1.6,0.8
		c-0.6,0.2-1.2,0.2-1.8,0.2c-1.2,0-2.4-0.2-3.4-0.6c-1-0.4-2-1-2.8-1.8l-0.2-0.2c-0.2,0-0.2,0-0.2,0.2l-0.2,0.2c0,0,0,0.2,0.2,0.2
		c0.8,0.8,1.8,1.6,3,2c1.2,0.4,2.4,0.8,3.6,0.8c0.8,0,1.4-0.2,2.2-0.4c0.6-0.2,1.4-0.4,1.8-0.8c0.6-0.4,1-0.8,1.4-1.4
		c0.4-0.6,0.6-1.2,0.6-2c0-0.8-0.2-1.4-0.4-2C-355.5,281.5-355.9,281.1-356.5,280.7z"/>
	<path d="M-352.4,271.8h10.9c0,0,0.2,0,0.2-0.2v-0.2v-0.2l-0.2-0.2h-10.7c0,0-0.2,0-0.2,0.2v0.2v0.2
		C-352.4,271.8-352.4,271.8-352.4,271.8z"/>
	<path d="M-341.5,273.2h-10.9c-0.2,0-0.2,0-0.2,0.2v0.2v0.2l0.2,0.2h5.1v14.4c0,0,0,0.2,0.2,0.2h0.2c0,0,0.2,0,0.2-0.2l0.2-0.2
		v-14.4h4.9c0,0,0.2,0,0.2-0.2v-0.2v-0.2C-341.3,273.2-341.3,273.2-341.5,273.2z"/>
	<path d="M-327.8,271h-0.2l-0.2,0.2v12.9c0,0.6,0,1-0.2,1.4c-0.2,0.4-0.4,0.8-0.8,1.2c-0.4,0.4-0.8,0.6-1.2,0.8
		c-0.4,0.2-1,0.2-1.4,0.2h-1.6c-0.6,0-1-0.2-1.4-0.2c-0.4-0.2-0.8-0.4-1.2-0.8c-0.4-0.4-0.6-0.8-0.8-1.2c-0.2-0.4-0.4-1-0.4-1.4
		v-12.9c0,0,0-0.2-0.2-0.2h-0.2h-0.2v0.2v12.9c0,0.6,0.2,1.2,0.4,1.8c0.2,0.6,0.6,1,1,1.4c0.4,0.4,0.8,0.8,1.4,1
		c0.6,0.2,1,0.4,1.8,0.4h1.8c0.6,0,1.2-0.2,1.6-0.4c0.6-0.2,1-0.6,1.4-1c0.4-0.4,0.6-0.8,1-1.4c0.2-0.6,0.4-1,0.4-1.6v-12.9v-0.2
		C-327.6,271.2-327.6,271-327.8,271z"/>
	<path d="M-311.8,280.9c-0.2-0.4-0.6-0.8-1-1c-0.4-0.4-0.8-0.6-1.4-0.8c0.8-0.4,1.4-0.8,1.8-1.6c0.4-0.6,0.6-1.4,0.6-2.2
		c0-0.6-0.2-1.2-0.4-1.6c-0.2-0.6-0.6-1-1-1.4c-0.4-0.4-0.8-0.6-1.4-1c-0.6-0.2-1-0.4-1.6-0.4h-6.5c-0.2,0-0.4,0.2-0.4,0.4v16.8
		c0,0,0,0.2,0.2,0.2l0.2,0.2h0.2l0.2-0.2V272h1.4v16.4c0,0.2,0,0.2,0,0.2l0.2,0.2h4.9c0.6,0,1.4-0.2,2-0.4c0.6-0.2,1.2-0.6,1.6-1
		c0.4-0.4,0.8-1,1-1.6s0.4-1.2,0.4-2c0-0.6,0-1-0.2-1.6C-311.4,281.7-311.6,281.3-311.8,280.9z M-320.3,271.8h4.2c0.6,0,1,0,1.4,0.2
		c0.4,0.2,0.8,0.4,1.2,0.8c0.4,0.4,0.6,0.8,0.8,1.2c0.2,0.4,0.2,0.8,0.2,1.4c0,0.4,0,1-0.2,1.4c-0.2,0.4-0.4,0.8-0.8,1.2
		c-0.4,0.4-0.8,0.6-1.2,0.8c-0.4,0.2-1,0.2-1.4,0.2h-4.2V271.8z M-312,285.4c-0.2,0.6-0.6,1-1,1.4c-0.4,0.4-0.8,0.6-1.4,1
		c-0.6,0.2-1,0.4-1.6,0.4h-4.6v-8.7h4.4c0,0,0,0,0.2,0c0.6,0,1.2,0.2,1.6,0.4c0.6,0.2,1,0.6,1.4,1c0.4,0.4,0.6,0.8,1,1.4
		c0.2,0.6,0.4,1,0.4,1.6C-311.6,284.3-311.8,284.9-312,285.4z"/>
	<path d="M-295.4,280.9c-0.2-0.4-0.6-0.8-1-1c-0.4-0.4-0.8-0.6-1.4-0.8c0.8-0.4,1.4-0.8,1.8-1.6c0.4-0.6,0.6-1.4,0.6-2.2
		c0-0.6-0.2-1.2-0.4-1.6c-0.2-0.6-0.6-1-1-1.4c-0.4-0.4-0.8-0.6-1.4-1c-0.6-0.2-1-0.4-1.6-0.4h-6.5c-0.2,0-0.4,0.2-0.4,0.4v16.8
		c0,0,0,0.2,0.2,0.2l0.2,0.2h0.2l0.2-0.2V272h1.4v16.4c0,0.2,0,0.2,0,0.2l0.2,0.2h4.9c0.6,0,1.4-0.2,2-0.4c0.6-0.2,1.2-0.6,1.6-1
		c0.4-0.4,0.8-1,1-1.6s0.4-1.2,0.4-2c0-0.6,0-1-0.2-1.6C-295,281.7-295.2,281.3-295.4,280.9z M-303.9,271.8h4.2c0.6,0,1,0,1.4,0.2
		c0.4,0.2,0.8,0.4,1.2,0.8c0.4,0.4,0.6,0.8,0.8,1.2c0.2,0.4,0.2,0.8,0.2,1.4c0,0.4,0,1-0.2,1.4c-0.2,0.4-0.4,0.8-0.8,1.2
		c-0.4,0.4-0.8,0.6-1.2,0.8c-0.4,0.2-1,0.2-1.4,0.2h-4.2V271.8z M-295.4,285.4c-0.2,0.6-0.6,1-1,1.4c-0.4,0.4-0.8,0.6-1.4,1
		c-0.6,0.2-1,0.4-1.6,0.4h-4.6v-8.7h4.4c0,0,0,0,0.2,0c0.6,0,1.2,0.2,1.6,0.4c0.6,0.2,1,0.6,1.4,1c0.4,0.4,0.6,0.8,1,1.4
		c0.2,0.6,0.4,1,0.4,1.6C-295.2,284.3-295.2,284.9-295.4,285.4z"/>
	<path d="M-279.8,271h-10.7c-0.2,0-0.4,0.2-0.4,0.4v16.8c0,0,0,0.2,0.2,0.2l0.2,0.2c0.2,0,0.4-0.2,0.4-0.4v-6.9h8.1
		c0,0,0.2,0,0.2-0.2l0.2-0.2c0-0.2,0-0.2,0-0.2l-0.2-0.2h-8.3v-1.4h8.1c0.2,0,0.4-0.2,0.4-0.4c0-0.2,0-0.2-0.2-0.2h-0.2h-8.1v-6.7
		h10.3c0.2,0,0.4-0.2,0.4-0.4S-279.4,271-279.8,271z"/>
	<path d="M-266.3,276.5c0.2-0.4,0.2-1,0.2-1.4c0-0.6-0.2-1-0.4-1.6c-0.2-0.4-0.4-0.8-0.8-1.2c-0.4-0.4-0.8-0.6-1.2-0.8
		c-0.4-0.2-1-0.2-1.6-0.2h-6.3c-0.2,0-0.4,0.2-0.4,0.4v16.8c0,0,0,0.2,0.2,0.2l0.2,0.2h0.2l0.2-0.2v-16.4h1.4v16.4v0.2h0.2h0.2
		l0.2-0.2v-6.9h3.8l3.4,7.3c0,0.2,0.2,0.2,0.4,0.2h0.2l0.2-0.2c0,0,0-0.2-0.2-0.6c-0.2-0.4-0.4-0.8-0.6-1.4
		c-0.2-0.6-0.6-1.2-0.8-1.8c-0.2-0.6-0.6-1.2-0.8-1.8c-0.2-0.6-0.4-1-0.6-1.4c-0.2-0.4-0.4-0.6-0.4-0.8s-0.2-0.2-0.4-0.2h-4v-1.4
		h3.8h0.2h0.2c0.6,0,1-0.2,1.4-0.4c0.4-0.2,0.8-0.6,1.2-0.8C-266.7,277.3-266.5,276.9-266.3,276.5z M-268.9,278.1
		c-0.4,0.2-0.8,0.2-1.2,0.2h-4v-6.5h4c0.4,0,0.8,0,1.2,0.2c0.4,0.2,0.8,0.4,1,0.6s0.6,0.6,0.8,1c0.2,0.4,0.2,0.8,0.2,1.2
		c0,0.4,0,1-0.2,1.4c-0.2,0.4-0.4,0.8-0.8,1C-268.1,277.7-268.5,277.9-268.9,278.1z"/>
	<path d="M-249.1,287.6c-0.2-0.4-0.4-1-0.8-1.8c-0.2-0.8-0.6-1.6-1-2.6c-0.4-1-0.8-2-1.2-3c-0.4-1-0.8-2-1.2-3c-0.4-1-0.8-2-1-2.8
		c-0.4-0.8-0.6-1.6-0.8-2.2c-0.2-0.6-0.4-1-0.4-1c0-0.2-0.2-0.2-0.4-0.2c-0.2,0-0.2,0-0.4,0.2c0,0.2-0.2,0.6-0.4,1
		c-0.2,0.6-0.4,1.2-0.8,2.2c-0.4,0.8-0.6,1.8-1,2.8c-0.4,1-0.8,2-1.2,3c-0.4,1-0.8,2-1.2,3c-0.4,1-0.8,1.8-1,2.6
		c-0.2,0.8-0.6,1.4-0.6,1.8c-0.2,0.4-0.2,0.8-0.2,0.8c0,0.2,0,0.2,0.2,0.4l0,0l0,0c0.2,0,0.2,0,0.4-0.2l1-2.4l0.6-1.6l3.6-9.3
		l3.6,9.1l1,2.6l0.6,1.4c0,0.2,0.2,0.2,0.4,0.2l0,0l0,0c0.2,0,0.2-0.2,0.2-0.4c0,0,0-0.2-0.2-0.6c-0.2-0.2-0.2-0.6-0.4-1
		c0-0.2-0.2-0.4-0.2-0.4c-0.2-0.6-0.4-1.2-0.8-1.8c0,0,0-0.2-0.2-0.2c-0.4-0.8-0.6-1.6-1-2.6c-0.4-0.8-0.6-1.6-1-2.6
		c-0.4-0.8-0.6-1.6-1-2.2c-0.2-0.6-0.6-1.2-0.8-1.8c-0.2-0.4-0.4-0.8-0.4-0.8l0.8-1.8l6.3,16c0,0.2,0.2,0.2,0.4,0.2
		c0,0,0.2,0,0.2-0.2v-0.2C-248.9,288.2-248.9,288-249.1,287.6z"/>
	<path d="M-236.2,280.7c-0.6-0.4-1.2-0.6-1.8-0.8c-0.6-0.2-1.4-0.4-2-0.6c-0.8-0.2-1.4-0.4-2-0.6c-0.6-0.2-1.2-0.4-1.8-0.6
		c-0.6-0.2-1-0.6-1.2-1.2c-0.4-0.4-0.4-1-0.4-1.8c0-0.6,0.2-1.2,0.4-1.6c0.4-0.4,0.8-0.8,1.2-1.2c0.4-0.2,1-0.6,1.6-0.6
		c0.6-0.2,1.2-0.2,1.8-0.2c0.8,0,1.6,0.2,2.4,0.4s1.4,0.6,2.2,1c0,0,0.2,0,0.2,0.2l0.2,0.2l0.2,0.2h0.2c0,0,0.2,0,0.2-0.2l0.2-0.2
		V273c0,0,0,0,0-0.2c-0.4-0.2-0.6-0.6-1.2-0.8c-0.4-0.2-1-0.4-1.4-0.6c-0.6-0.2-1-0.2-1.6-0.4c-0.6,0-1-0.2-1.4-0.2
		c-0.6,0-1.4,0-2,0.2c-0.6,0.2-1.2,0.4-1.8,0.8s-1,0.8-1.4,1.4c-0.4,0.6-0.6,1.2-0.6,2c0,0.6,0,1,0.4,1.6c0.2,0.4,0.4,0.8,0.8,1.2
		c0.4,0.4,0.8,0.6,1.2,0.8s1,0.4,1.4,0.6s0.8,0.2,1.4,0.4c0.6,0.2,1,0.2,1.6,0.4c0.6,0.2,1.2,0.4,1.6,0.4c0.6,0.2,1,0.4,1.4,0.8
		c0.4,0.2,0.8,0.6,1,1c0.2,0.4,0.4,0.8,0.4,1.4c0,0.6-0.2,1.2-0.4,1.8c-0.4,0.6-0.8,1-1.2,1.2c-0.4,0.4-1,0.6-1.6,0.8
		c-0.6,0.2-1.2,0.2-1.8,0.2c-1.2,0-2.4-0.2-3.4-0.6c-1-0.4-2-1-2.8-1.8l-0.2-0.2c0,0-0.2,0-0.2,0.2l-0.2,0.2c0,0,0,0.2,0.2,0.2
		c0.8,0.8,1.8,1.6,3,2c1.2,0.4,2.4,0.8,3.6,0.8c0.8,0,1.4-0.2,2.2-0.4c0.8-0.2,1.4-0.4,1.8-0.8c0.6-0.4,1-0.8,1.4-1.4
		c0.4-0.6,0.6-1.2,0.6-2c0-0.8-0.2-1.4-0.4-2C-235.4,281.5-235.8,281.1-236.2,280.7z"/>
	<path d="M-438.4,286c-0.4-0.6-1-1.2-1.4-2c-0.6-0.8-1-1.4-1.4-2s-0.8-1.2-1.2-1.6s-0.6-0.8-0.6-1c0,0-0.2-0.2-0.4-0.2
		c0,0-0.2,0-0.4,0.2c-0.2,0.2-0.4,0.4-0.6,0.6s-0.4,0.4-0.8,0.6c-0.2,0.2-0.6,0.4-0.8,0.8c-0.2,0.2-0.4,0.4-0.6,0.6
		c-0.2,0.2-0.2,0.4-0.4,0.4v-2l8.9-8.9l0.2-0.2c0,0,0-0.2-0.2-0.2l-0.2-0.2c0,0-0.2,0-0.2,0.2l-8.1,8.3v-7.9c0,0,0-0.2-0.2-0.2
		l-0.2-0.2h-0.2l-0.2,0.2V288c0,0.2,0,0.2,0.2,0.2h0.2h0.2l0.2-0.2v-4.6l3.2-3.2l5.9,8.3l0.2,0.2h0.2l0.2-0.2c0,0-0.2-0.2-0.4-0.8
		C-437.6,287.2-437.8,286.6-438.4,286z"/>
	<path d="M-420.2,287.6c-0.2-0.4-0.4-1-0.8-1.8c-0.2-0.8-0.6-1.6-1-2.6c-0.4-1-0.8-2-1.2-3c-0.4-1-0.8-2-1.2-3c-0.4-1-0.8-2-1-2.8
		c-0.4-0.8-0.6-1.6-0.8-2.2c-0.2-0.6-0.4-1-0.4-1c0-0.2-0.2-0.2-0.4-0.2s-0.2,0-0.4,0.2c0,0.2-0.2,0.6-0.4,1
		c-0.2,0.6-0.4,1.2-0.8,2.2c-0.4,0.8-0.6,1.8-1,2.8c-0.4,1-0.8,2-1.2,3c-0.4,1-0.8,2-1.2,3c-0.4,1-0.8,1.8-1,2.6
		c-0.2,0.8-0.6,1.4-0.6,1.8c-0.2,0.4-0.2,0.8-0.2,0.8c0,0.2,0,0.2,0.2,0.4l0,0l0,0c0.2,0,0.2,0,0.4-0.2l0.8-2.2l0.8-1.8l3.6-9.3
		l3.6,9.1l0.4,1h-7.1c-0.2,0-0.4,0.2-0.4,0.4c0,0.2,0.2,0.4,0.4,0.4l0,0h7.3l0.4,0.8l0.6,1.6c0,0.2,0.2,0.2,0.4,0.2l0,0l0,0
		c0.2,0,0.2-0.2,0.2-0.4c0,0,0-0.2-0.2-0.6c-0.2-0.4-0.2-0.8-0.4-1.2c0-0.2,0-0.2-0.2-0.4c-0.2-0.6-0.4-1.2-0.8-1.8
		c0-0.2,0-0.2-0.2-0.2c-0.4-0.8-0.6-1.6-1-2.6c-0.4-0.8-0.6-1.6-1-2.6c-0.4-0.8-0.6-1.6-1-2.2c-0.2-0.6-0.6-1.2-0.8-1.8
		c-0.2-0.4-0.4-0.8-0.4-0.8l0.8-1.8l6.3,16c0,0.2,0.2,0.2,0.4,0.2c0,0,0.2,0,0.2-0.2l0.2-0.2C-420,288.2-420,288-420.2,287.6z"/>
	<polygon points="-415.3,316.1 -411.1,311 -407,307.8 -401.6,305.2 -394.7,303.6 -388.8,303.3 -380.5,304.8 -376.5,308.2 
		-372.6,311.6 -369.8,315.3 -367.6,319.7 -366.8,322.8 -372.6,325.6 -376.7,327.8 -380.5,329.4 -382.2,330.4 -384,326.6 
		-386.4,324.4 -388.8,323.2 -392.3,323 -394.3,323 	"/>
</g>
</svg>
